HIERARCHY
ROOT Hips
{
 OFFSET 0.000000 0.000000 0.000000
 CHANNELS 6 Xposition Yposition Zposition Yrotation Xrotation Zrotation
 JOINT Chest
 {
  OFFSET 0.000000 10.354800 0.006500
  CHANNELS 3 Yrotation Xrotation Zrotation
  JOINT Chest2
  {
   OFFSET 0.000000 10.435800 -0.013200
   CHANNELS 3 Yrotation Xrotation Zrotation
   JOINT Chest3
   {
    OFFSET 0.000000 10.393700 0.000000
    CHANNELS 3 Yrotation Xrotation Zrotation
    JOINT Chest4
    {
     OFFSET 0.000000 10.383100 0.000000
     CHANNELS 3 Yrotation Xrotation Zrotation
     JOINT Neck
     {
      OFFSET 0.000000 15.694000 0.000000
      CHANNELS 3 Yrotation Xrotation Zrotation
      JOINT Head
      {
       OFFSET 0.000000 9.711000 -0.028000
       CHANNELS 3 Yrotation Xrotation Zrotation
       End Site
       {
        OFFSET 0.000000 18.578700 -0.014800
       }
      }
     }
     JOINT RightCollar
     {
      OFFSET -3.157200 10.367500 0.000000
      CHANNELS 3 Yrotation Xrotation Zrotation
      JOINT RightShoulder
      {
       OFFSET -14.482500 0.000000 0.000000
       CHANNELS 3 Yrotation Xrotation Zrotation
       JOINT RightElbow
       {
        OFFSET 0.000000 -31.707800 0.000000
        CHANNELS 3 Yrotation Xrotation Zrotation
        JOINT RightWrist
        {
         OFFSET 0.000000 -25.659300 0.000000
         CHANNELS 3 Yrotation Xrotation Zrotation
         End Site
         {
          OFFSET 0.000000 -18.994300 0.000000
         }
        }
       }
      }
     }
     JOINT LeftCollar
     {
      OFFSET 3.157200 10.367500 0.000000
      CHANNELS 3 Yrotation Xrotation Zrotation
      JOINT LeftShoulder
      {
       OFFSET 14.482500 0.000000 0.000000
       CHANNELS 3 Yrotation Xrotation Zrotation
       JOINT LeftElbow
       {
        OFFSET 0.000000 -31.707800 0.000000
        CHANNELS 3 Yrotation Xrotation Zrotation
        JOINT LeftWrist
        {
         OFFSET 0.000000 -25.659300 0.000000
         CHANNELS 3 Yrotation Xrotation Zrotation
         End Site
         {
          OFFSET 0.000000 -18.994300 0.000000
         }
        }
       }
      }
     }
    }
   }
  }
 }
 JOINT RightHip
 {
  OFFSET -8.365600 -0.032100 -0.003200
  CHANNELS 3 Yrotation Xrotation Zrotation
  JOINT RightKnee
  {
   OFFSET 0.000000 -43.980000 0.003100
   CHANNELS 3 Yrotation Xrotation Zrotation
   JOINT RightAnkle
   {
    OFFSET 0.000000 -42.882800 0.005200
    CHANNELS 3 Yrotation Xrotation Zrotation
    JOINT RightToe
    {
     OFFSET 0.000000 -4.915500 10.826300
     CHANNELS 3 Yrotation Xrotation Zrotation
     End Site
     {
      OFFSET 0.000000 -1.517500 6.175900
     }
    }
   }
  }
 }
 JOINT LeftHip
 {
  OFFSET 8.365600 -0.032100 -0.003200
  CHANNELS 3 Yrotation Xrotation Zrotation
  JOINT LeftKnee
  {
   OFFSET 0.000000 -43.980000 0.003100
   CHANNELS 3 Yrotation Xrotation Zrotation
   JOINT LeftAnkle
   {
    OFFSET 0.000000 -42.882800 0.005200
    CHANNELS 3 Yrotation Xrotation Zrotation
    JOINT LeftToe
    {
     OFFSET 0.000000 -4.915500 10.826300
     CHANNELS 3 Yrotation Xrotation Zrotation
     End Site
     {
      OFFSET 0.000000 -1.517500 6.175900
     }
    }
   }
  }
 }
}
MOTION
Frames: 5
Frame Time: 0.008333
0.000000 91.618600 0.000000 0.000000 -5.767877 0.000000 0.000000 11.653817 0.000000 0.000000 -5.885947 0.000000 0.000000 -0.000000 0.000000 0.000000 -0.000000 0.000000 0.000000 12.528835 0.000000 0.000000 0.711642 0.000000 0.000000 -0.000000 0.000000 0.000000 0.000000 -90.000000 0.000000 -2.309062 0.000000 0.000000 2.309062 0.000000 0.000000 -0.000000 0.000000 0.000000 -0.000000 90.000000 0.000000 -2.309062 0.000000 0.000000 2.309062 0.000000 0.000000 8.520406 0.000000 0.000000 1.905762 0.000000 -0.000000 -4.658285 0.000000 0.000000 -0.000000 0.000000 0.000000 8.520406 0.000000 0.000000 1.905762 0.000000 -0.000000 -4.658285 0.000000 0.000000 -0.000000 0.000000
-7.636952 126.885232 33.556089 177.173575 -26.718392 -3.776961 -2.155868 13.393767 3.057386 -0.209818 1.123790 0.276046 -0.352362 1.904087 0.465227 -1.993162 12.009053 2.777010 -6.527692 20.173027 -3.282175 -6.211744 -4.037479 -2.043681 7.894981 2.060324 -4.377304 11.428451 -31.223536 -7.032516 -73.374167 -47.211577 77.000440 -27.200170 -15.123980 -34.821750 -9.205267 5.204694 1.391280 5.491301 -39.137019 -9.513835 76.619897 -43.130121 -73.987087 30.164915 -2.356037 33.462567 12.945761 -54.561892 -2.535086 -119.695016 81.878290 -113.425513 6.162695 -8.565331 -11.458041 0.005371 0.004384 0.002439 -15.723932 -54.467689 7.183929 99.009112 82.624840 92.679996 -10.356031 -9.853053 2.214917 -0.003934 0.019475 -0.001787
-7.637772 126.888961 33.561759 177.182892 -26.786421 -3.788912 -2.159822 13.423622 3.050752 -0.209952 1.131986 0.276973 -0.352531 1.917543 0.466669 -1.981373 12.048486 2.777579 -6.437432 20.248694 -3.243658 -6.222977 -4.054214 -2.013509 7.872822 2.058514 -4.380092 11.387342 -31.147687 -7.046023 -73.318444 -47.278469 77.037879 -27.195211 -15.119675 -34.894651 -9.196941 5.175459 1.398723 5.507632 -39.107002 -9.525123 76.581711 -43.194096 -73.933969 30.167296 -2.438896 33.593645 12.936178 -54.503624 -2.515655 -119.611685 81.875808 -113.338803 6.154068 -8.567032 -11.449029 0.005228 -0.000071 0.002373 -15.666351 -54.414525 7.174547 98.836784 82.630059 92.484342 -10.392172 -9.797933 2.255278 -0.003605 0.008376 -0.001637
-7.635965 126.894261 33.567197 177.173376 -26.875241 -3.809114 -2.147846 13.471590 3.056975 -0.209878 1.140065 0.277956 -0.352236 1.930868 0.468245 -1.968630 12.094561 2.777015 -6.407402 20.270010 -3.214710 -6.194367 -4.025701 -1.991241 7.851313 2.051886 -4.380461 11.339760 -31.084249 -7.031632 -73.311970 -47.321850 77.117542 -27.151967 -15.115840 -34.963917 -9.197058 5.150313 1.412721 5.548944 -39.075109 -9.557066 76.553894 -43.279235 -73.894934 30.175336 -2.506988 33.689778 12.907393 -54.428228 -2.453458 -119.502989 81.877719 -113.234277 6.149036 -8.557358 -11.434849 0.003478 -0.000642 0.001579 -15.612864 -54.332367 7.173649 98.822693 82.654804 92.479840 -10.419470 -9.782629 2.245301 0.000735 0.005796 0.000334
-7.634866 126.899727 33.574060 177.161274 -26.967688 -3.826402 -2.130949 13.542534 3.068865 -0.209813 1.144037 0.278430 -0.355439 1.923803 0.464116 -1.956094 12.151657 2.767363 -6.387245 20.278301 -3.177090 -6.181654 -3.997653 -1.968758 7.826429 2.035665 -4.372626 11.280316 -31.027893 -6.992857 -73.281674 -47.376019 77.186125 -27.124518 -15.141835 -35.000863 -9.178442 5.121807 1.428242 5.544814 -39.059061 -9.562835 76.545534 -43.363088 -73.847624 30.181622 -2.561151 33.746334 12.870678 -54.347118 -2.381447 -119.361482 81.882152 -113.105804 6.108951 -8.545465 -11.408726 -0.002523 0.002706 -0.001145 -15.560774 -54.242631 7.165819 98.772029 82.672794 92.433714 -10.409872 -9.771673 2.242065 0.006686 0.005978 0.003036
